# xmcd CD database file
#
# Track frame offsets:
#	150
#	16230
#	36493
#	56607
#	70062
#	86411
#	95374
#	112377
#	131081
#	153177
#	172740
#	189856
#	208233
#	226502
#	248214
#
# Disc length: 3512 seconds
#
# Revision: 0
# Processed by: cddbd v1.4PL0 Copyright (c) Steve Scherf et al.
# Submitted via: CDex 1.50
#
DISCID=bf0db60f
DTITLE=M2O - Epiphany
DYEAR=2003
DGENRE=Jazz
TTITLE0=Ghetteau
TTITLE1=Sunshine and Rain
TTITLE2=Epiphany
TTITLE3=What "Chu" Want
TTITLE4=Extraordinary Love
TTITLE5=The Wedding Day
TTITLE6=Black Pepper
TTITLE7=For Your Love
TTITLE8=Sheltered
TTITLE9=Groove Park
TTITLE10=Undeniable Love
TTITLE11=Manhattan Cafe
TTITLE12=Where Would I Be
TTITLE13=Could THis Love Be Real
TTITLE14=A Song For Aaron
EXTD=YEAR: 2003
EXTT0=
EXTT1=
EXTT2=
EXTT3=
EXTT4=
EXTT5=
EXTT6=
EXTT7=
EXTT8=
EXTT9=
EXTT10=
EXTT11=
EXTT12=
EXTT13=
EXTT14=
PLAYORDER=
